<?xml version="1.0" standalone="no"?>
<!DOCTYPE svg PUBLIC "-//W3C//DTD SVG 20010904//EN"
 "http://www.w3.org/TR/2001/REC-SVG-20010904/DTD/svg10.dtd">
<svg version="1.0" 
    xmlns="http://www.w3.org/2000/svg" width="256.000000pt" height="256.000000pt" viewBox="0 0 256.000000 256.000000" preserveAspectRatio="xMidYMid meet">
    <g transform="translate(0.000000,256.000000) scale(0.100000,-0.100000)" fill="#000000" stroke="none">
        <path d="M1108 2509 c3 -21 -6 -54 -31 -107 -52 -111 -54 -126 -23 -156 14
-15 36 -26 50 -26 14 0 28 -5 31 -11 5 -7 -4 -8 -28 -4 -30 6 -35 4 -40 -17
-11 -39 -8 -72 8 -95 22 -31 55 -167 55 -224 0 -39 4 -51 26 -68 31 -24 104
-28 144 -8 l25 13 0 187 c0 175 -1 189 -20 206 -17 16 -29 17 -75 11 -30 -4
-58 -5 -63 -3 -4 2 -4 33 -1 69 8 77 -10 89 -20 13 l-7 -50 -32 6 c-43 10 -47
13 -47 37 0 25 72 187 83 188 11 0 64 -87 78 -127 15 -46 5 -77 -28 -93 -28
-14 -28 -14 -5 -18 63 -10 81 75 37 165 -25 50 -99 143 -114 143 -4 0 -6 -14
-3 -31z m188 -464 c0 -72 4 -151 8 -177 8 -46 7 -48 -19 -58 -38 -15 -87 -12
-113 6 -18 13 -22 25 -22 74 0 69 -24 168 -52 215 -11 19 -17 38 -14 43 3 5
29 7 58 4 35 -3 65 1 88 11 64 28 65 26 66 -118z"/>
        <path d="M453 2318 c-32 -38 -66 -136 -71 -204 -4 -68 -3 -71 24 -93 21 -16
37 -21 57 -17 20 4 27 2 24 -7 -2 -6 -29 -15 -61 -18 -83 -9 -106 -51 -70
-122 21 -40 42 -125 50 -202 4 -33 11 -68 15 -77 11 -20 67 -33 99 -23 13 4
73 8 135 10 110 3 160 15 152 38 -4 14 -42 23 -128 32 l-66 6 -13 53 c-12 50
-10 125 6 219 9 53 -17 91 -57 83 -40 -8 -36 7 6 23 66 24 58 74 -31 184 -29
35 -49 71 -53 94 -5 30 -8 34 -18 21z m30 -106 c15 -20 41 -55 57 -76 38 -49
39 -83 4 -96 -38 -15 -41 -13 -60 35 -9 25 -21 45 -25 45 -12 0 -12 0 6 -50
19 -54 20 -51 -12 -44 -43 10 -55 32 -49 89 5 50 34 135 45 135 3 0 19 -17 34
-38z m89 -324 c-8 -32 0 -180 13 -244 9 -43 -21 -64 -92 -64 l-52 0 -6 48
c-17 132 -29 190 -47 225 -10 21 -18 48 -16 59 3 19 10 21 83 23 44 0 89 6
100 12 17 10 20 9 23 -7 2 -10 -1 -34 -6 -52z"/>
        <path d="M1784 2294 c3 -22 -6 -54 -34 -115 -46 -97 -50 -141 -18 -163 12 -9
32 -16 45 -16 12 0 25 -5 29 -12 5 -8 -2 -9 -23 -5 -27 5 -32 3 -43 -23 -13
-32 -6 -83 15 -100 12 -10 52 -148 44 -154 -2 -2 -31 -11 -64 -22 -52 -17 -60
-22 -60 -44 0 -24 3 -25 60 -25 53 0 63 -3 88 -29 27 -26 33 -28 93 -24 91 6
97 14 83 114 -6 47 -8 119 -4 177 6 86 4 101 -11 118 -18 21 -87 26 -114 9
-29 -18 -39 7 -33 77 5 49 3 64 -5 59 -7 -4 -12 -25 -12 -47 0 -44 -14 -55
-54 -45 -41 10 -41 39 0 129 21 45 41 86 45 91 4 4 24 -17 45 -49 29 -44 38
-67 38 -102 1 -44 -2 -49 -43 -70 -1 -1 0 -6 4 -12 8 -14 60 12 69 34 19 49
-26 154 -98 230 -47 50 -47 50 -42 19z m192 -359 c3 -14 3 -33 -1 -42 -9 -25
-7 -166 4 -233 12 -68 0 -80 -75 -80 -67 0 -84 20 -84 100 -1 67 -22 160 -44
192 -9 12 -16 32 -16 43 0 20 4 21 59 17 40 -3 67 1 87 12 42 22 63 20 70 -9z"/>
        <path d="M1463 2137 c-35 -58 -66 -173 -60 -215 8 -44 38 -76 74 -78 16 -1 32
-3 36 -3 5 -1 6 -5 2 -10 -3 -5 -30 -13 -60 -16 -49 -6 -55 -10 -70 -41 -15
-32 -15 -36 9 -86 13 -29 32 -98 41 -153 9 -55 20 -107 25 -116 7 -13 4 -18
-11 -22 -29 -8 -22 -57 11 -75 77 -41 466 65 417 114 -3 4 -32 2 -64 -4 -32
-6 -89 -14 -128 -18 l-70 -7 19 21 c19 22 19 46 -3 127 -13 50 -14 140 -1 184
7 26 6 42 -6 68 -18 36 -21 37 -58 23 -20 -7 -26 -6 -26 4 0 8 16 20 35 26 72
24 65 70 -24 175 -49 56 -56 70 -63 120 -3 16 -7 13 -25 -18z m57 -103 c88
-107 97 -133 55 -152 -39 -18 -44 -16 -67 36 -25 55 -38 35 -14 -22 14 -33 14
-36 -2 -36 -10 0 -28 7 -40 16 -17 12 -22 25 -22 61 0 45 28 153 39 153 3 -1
26 -26 51 -56z"/>
        <path d="M882 2119 c-57 -93 -79 -226 -44 -267 19 -24 72 -40 72 -23 0 6 -11
13 -25 17 -50 12 -57 64 -24 162 11 34 24 62 27 62 16 -2 122 -155 122 -176 0
-23 -25 -44 -54 -44 -8 0 -22 20 -32 45 -9 25 -21 45 -26 45 -10 0 -3 -29 19
-77 24 -52 16 -64 -47 -68 -42 -3 -58 -9 -72 -27 -22 -29 -22 -43 2 -96 21
-46 50 -184 50 -238 0 -22 7 -38 20 -47 21 -14 21 -15 -5 -21 -64 -16 1 -52
122 -67 49 -6 129 -13 178 -16 80 -4 94 -2 115 15 21 17 23 22 10 37 -12 14
-25 16 -91 10 -57 -5 -97 -2 -154 10 -76 17 -77 18 -49 30 45 19 57 39 49 82
-14 77 -16 207 -5 249 11 37 10 46 -6 73 -16 28 -22 30 -51 25 -44 -8 -42 9 2
25 72 26 69 70 -11 168 -51 62 -58 76 -66 128 -3 17 -7 14 -26 -16z m134 -481
c0 -79 4 -157 8 -173 6 -24 3 -34 -12 -48 -26 -23 -114 -34 -128 -16 -6 8 -16
59 -23 114 -7 56 -23 125 -37 157 -13 31 -22 63 -19 70 4 9 29 13 88 13 45 0
91 6 102 12 11 7 20 13 21 13 0 0 1 -64 0 -142z"/>
        <path d="M338 1393 c-16 -4 -18 -18 -18 -112 l0 -108 44 -5 c30 -4 69 -21 118
-52 40 -26 84 -49 98 -52 14 -3 97 -23 185 -44 208 -52 273 -61 430 -63 144
-1 371 32 534 79 94 27 284 114 355 163 24 17 52 31 60 31 13 0 16 14 16 82 0
79 -1 81 -19 64 -10 -9 -41 -22 -67 -29 -49 -12 -49 -12 -56 -62 -5 -38 -14
-57 -38 -77 -41 -38 -84 -37 -144 3 -44 30 -50 31 -85 20 -36 -10 -76 -48
-137 -127 -30 -40 -61 -28 -102 41 -28 46 -38 55 -61 55 -29 0 -47 -17 -144
-134 -66 -79 -147 -84 -202 -12 -13 17 -34 56 -48 87 -23 52 -28 57 -70 68
-65 16 -148 14 -175 -5 -16 -11 -22 -25 -22 -50 0 -48 -16 -74 -44 -74 -32 0
-44 17 -52 77 -9 69 -34 108 -79 123 -20 7 -38 10 -41 7 -3 -2 -8 -22 -11 -43
-7 -49 -29 -74 -63 -74 -53 0 -73 29 -81 116 -6 63 -12 82 -30 96 -11 10 -24
17 -28 17 -3 -1 -14 -3 -23 -6z"/>
        <path d="M2147 1062 c-11 -62 -35 -82 -102 -82 -46 0 -56 -3 -66 -22 -19 -37
-51 -68 -71 -68 -11 0 -32 7 -49 16 -16 8 -39 12 -50 9 -23 -7 -49 -54 -49
-87 0 -41 -183 -102 -254 -84 -14 3 -45 24 -70 45 -55 48 -113 62 -152 36 -14
-9 -28 -24 -31 -33 -30 -84 -145 -96 -221 -22 -32 30 -51 40 -89 45 -26 3 -72
10 -101 14 -45 7 -59 5 -99 -15 -25 -13 -54 -24 -62 -24 -26 0 -61 29 -61 50
0 28 -59 90 -105 111 -56 26 -91 24 -119 -6 -38 -41 -90 -32 -111 19 l-13 31
-40 -41 c-65 -69 -73 -152 -20 -229 70 -104 309 -202 608 -250 160 -26 557
-32 735 -11 461 54 745 192 745 362 0 52 -25 98 -84 150 -42 38 -52 54 -56 88
l-5 41 -8 -43z"/>
    </g>
</svg>
